<?xml version="1.0" encoding="UTF-8"?><svg xmlns="http://www.w3.org/2000/svg" xmlns:xlink="http://www.w3.org/1999/xlink" viewBox="0 0 800 1200"><defs><style>.cls-1{fill:url(#linear-gradient-2);}.cls-2{fill:url(#linear-gradient-10);}.cls-3{fill:none;}.cls-4{fill:url(#linear-gradient-4);}.cls-5{fill:url(#linear-gradient-3);}.cls-6{fill:url(#linear-gradient-5);}.cls-7{fill:url(#linear-gradient-8);}.cls-8{fill:url(#linear-gradient-7);}.cls-9{fill:url(#linear-gradient-9);}.cls-10{fill:url(#linear-gradient-6);}.cls-11{fill:url(#linear-gradient);}.cls-12{clip-path:url(#clippath);}</style><linearGradient id="linear-gradient" x1="-100" y1="1100" x2="900" y2="100" gradientUnits="userSpaceOnUse"><stop offset="0" stop-color="#e0eafc"/><stop offset="1" stop-color="#bdebfe"/></linearGradient><clipPath id="clippath"><rect class="cls-3" width="800" height="1200"/></clipPath><linearGradient id="linear-gradient-2" x1="425.6" y1="-51.5" x2="1089.45" y2="-51.5" gradientUnits="userSpaceOnUse"><stop offset="0" stop-color="#0bc1c7"/><stop offset="1" stop-color="#324cfc"/></linearGradient><linearGradient id="linear-gradient-3" x1="314.56" y1="-144.58" x2="903.78" y2="-144.58" gradientUnits="userSpaceOnUse"><stop offset="0" stop-color="#3aa1c7"/><stop offset="1" stop-color="#324cfc"/></linearGradient><linearGradient id="linear-gradient-4" x1="711.97" y1="217.43" x2="763.22" y2="217.43" gradientUnits="userSpaceOnUse"><stop offset="0" stop-color="#4bf6fa"/><stop offset="1" stop-color="#324cfc"/></linearGradient><linearGradient id="linear-gradient-5" x1="322.35" y1="66.97" x2="373.6" y2="66.97" gradientTransform="translate(333.2 -287.08) rotate(76.72)" xlink:href="#linear-gradient-3"/><linearGradient id="linear-gradient-6" x1="-212.22" y1="1316.58" x2="377" y2="1316.58" gradientUnits="userSpaceOnUse"><stop offset="0" stop-color="#86a3fc"/><stop offset="1" stop-color="#30c4c7"/></linearGradient><linearGradient id="linear-gradient-7" x1="-489" y1="1216.49" x2="170.02" y2="1216.49" gradientUnits="userSpaceOnUse"><stop offset="0" stop-color="#324cfc"/><stop offset="1" stop-color="#3aa1c7"/></linearGradient><linearGradient id="linear-gradient-8" x1="160.89" y1="1059.83" x2="212.13" y2="1059.83" xlink:href="#linear-gradient-4"/><linearGradient id="linear-gradient-9" x1="623.51" y1="1018" x2="1287.37" y2="1018" gradientTransform="translate(-404.85 404.85) rotate(90) scale(1 -1)" xlink:href="#linear-gradient-3"/><linearGradient id="linear-gradient-10" x1="669.25" y1="1121.61" x2="720.49" y2="1121.61" xlink:href="#linear-gradient-4"/></defs><g id="Background"><rect class="cls-11" width="800" height="1200"/></g><g id="Graphic_Elements"><g class="cls-12"><path class="cls-1" d="M1082.04-153.15l-.43-.43c-9.89-9.89-25.92-9.88-35.8,0l-4.25,4.25c-9.89,9.89-25.92,9.89-35.8,0l-.43-.43c-9.89-9.89-25.92-9.88-35.8,0l-38.33,38.33c-10.01,10.01-26.23,10.01-36.23,0h0c-10.01-10.01-10.01-26.23,0-36.23l56.65-56.65c9.89-9.89,9.89-25.91,0-35.8l-.43-.43c-9.89-9.89-25.92-9.89-35.8,0l-124.66,124.66c-10.01,10.01-26.23,10.01-36.23,0h0c-10.01-10.01-10.01-26.23,0-36.23l124.66-124.66c9.89-9.89,9.89-25.91,0-35.8l-.43-.43c-9.89-9.89-25.92-9.89-35.8,0L557.55-27.68c-10.01,10.01-10.01,26.23,0,36.23h0c10.01,10.01,10.01,26.23,0,36.23l-124.45,124.45c-10.01,10.01-10.01,26.23,0,36.23h0c10.01,10.01,26.23,10.01,36.23,0l124.45-124.45c10.01-10.01,26.23-10.01,36.23,0h0c10.01,10.01,10.01,26.23,0,36.23l-56.43,56.43c-10.01,10.01-10.01,26.23,0,36.23h0c10.01,10.01,26.23,10.01,36.23,0l38.11-38.11c10.01-10.01,26.23-10.01,36.23,0h0c10.01,10.01,26.23,10.01,36.23,0l3.82-3.82c10.01-10.01,26.23-10.01,36.23,0h0c10.01,10.01,26.23,10.01,36.23,0l285.34-285.34c9.89-9.89,9.89-25.91,0-35.8Z"/><path class="cls-5" d="M609.17-61.17h0c9.78,9.78,9.78,25.65,0,35.43l-74.68,74.68c-9.78,9.78-9.78,25.65,0,35.43h0c9.78,9.78,9.78,25.65,0,35.43l-15.67,15.67c-9.78,9.78-9.78,25.65,0,35.43h0c9.78,9.78,25.65,9.78,35.43,0l251.84-251.84c9.78-9.78,9.78-25.65,0-35.43h0c-9.78-9.78-9.78-25.65,0-35.43l15.67-15.67c9.78-9.78,9.78-25.65,0-35.43h0c-9.78-9.78-9.78-25.65,0-35.43l74.68-74.68c9.78-9.78,9.78-25.65,0-35.43h0c-9.78-9.78-25.65-9.78-35.43,0l-41.91,41.91c-9.78,9.78-25.65,9.78-35.43,0h0c-9.78-9.78-25.65-9.78-35.43,0l-54.64,54.64c-9.78,9.78-25.65,9.78-35.43,0h0c-9.78-9.78-9.78-25.65,0-35.43l21.87-21.87c9.78-9.78,9.78-25.65,0-35.43h0c-9.78-9.78-9.78-25.65,0-35.43l44.57-44.57c9.78-9.78,9.78-25.65,0-35.43h0c-9.78-9.78-25.65-9.78-35.43,0l-44.57,44.57c-9.78,9.78-25.65,9.78-35.43,0h0c-9.78-9.78-25.65-9.78-35.43,0l-251.84,251.84c-9.78,9.78-9.78,25.65,0,35.43h0c9.78,9.78,25.65,9.78,35.43,0l44.57-44.57c9.78-9.78,25.65-9.78,35.43,0h0c9.78,9.78,9.78,25.65,0,35.43l-44.57,44.57c-9.78,9.78-9.78,25.65,0,35.43h0c9.78,9.78,9.78,25.65,0,35.43L370.9-.05c-9.78,9.78-9.78,25.65,0,35.43h0c9.78,9.78,25.65,9.78,35.43,0l54.64-54.64c9.78-9.78,25.65-9.78,35.43,0h0c9.78,9.78,25.65,9.78,35.43,0l41.91-41.91c9.78-9.78,25.65-9.78,35.43,0Z"/><circle class="cls-4" cx="737.6" cy="217.43" r="25.62"/><circle class="cls-6" cx="347.98" cy="66.97" r="25.62" transform="translate(202.85 390.25) rotate(-76.72)"/><path class="cls-10" d="M15.98,1399.98h0c9.78,9.78,9.78,25.65,0,35.43l-74.68,74.68c-9.78,9.78-9.78,25.65,0,35.43h0c9.78,9.78,9.78,25.65,0,35.43l-15.67,15.67c-9.78,9.78-9.78,25.65,0,35.43h0c9.78,9.78,25.65,9.78,35.43,0l251.84-251.84c9.78-9.78,9.78-25.65,0-35.43h0c-9.78-9.78-9.78-25.65,0-35.43l15.67-15.67c9.78-9.78,9.78-25.65,0-35.43h0c-9.78-9.78-9.78-25.65,0-35.43l74.68-74.68c9.78-9.78,9.78-25.65,0-35.43h0c-9.78-9.78-25.65-9.78-35.43,0l-41.91,41.91c-9.78,9.78-25.65,9.78-35.43,0h0c-9.78-9.78-25.65-9.78-35.43,0l-54.64,54.64c-9.78,9.78-25.65,9.78-35.43,0h0c-9.78-9.78-9.78-25.65,0-35.43l21.87-21.87c9.78-9.78,9.78-25.65,0-35.43h0c-9.78-9.78-9.78-25.65,0-35.43l44.57-44.57c9.78-9.78,9.78-25.65,0-35.43h0c-9.78-9.78-25.65-9.78-35.43,0l-44.57,44.57c-9.78,9.78-25.65,9.78-35.43,0h0c-9.78-9.78-25.65-9.78-35.43,0l-251.84,251.84c-9.78,9.78-9.78,25.65,0,35.43h0c9.78,9.78,25.65,9.78,35.43,0l44.57-44.57c9.78-9.78,25.65-9.78,35.43,0h0c9.78,9.78,9.78,25.65,0,35.43l-44.57,44.57c-9.78,9.78-9.78,25.65,0,35.43h0c9.78,9.78,9.78,25.65,0,35.43l-21.87,21.87c-9.78,9.78-9.78,25.65,0,35.43h0c9.78,9.78,25.65,9.78,35.43,0l54.64-54.64c9.78-9.78,25.65-9.78,35.43,0h0c9.78,9.78,25.65,9.78,35.43,0l41.91-41.91c9.78-9.78,25.65-9.78,35.43,0Z"/><path class="cls-8" d="M-341.67,1287.41l-139.82,139.82c-10.01,10.01-10.01,26.23,0,36.23h0c10.01,10.01,26.23,10.01,36.23,0l55.71-55.71c10.01-10.01,26.23-10.01,36.23,0h0c10.01,10.01,10.01,26.23,0,36.23l-78.36,78.36c-10.01,10.01-10.01,26.23,0,36.23h0c10.01,10.01,26.23,10.01,36.23,0l16.22-16.22c10.01-10.01,26.23-10.01,36.23,0h0c10.01,10.01,26.23,10.01,36.23,0l34.48-34.48c10.01-10.01,26.23-10.01,36.23,0l.88.88c9.52,9.52,9.52,24.96,0,34.48h0c-10.01,10.01-10.01,26.23,0,36.23h0c10.01,10.01,26.23,10.01,36.23,0l361.62-361.62c9.76-9.76,9.76-25.59,0-35.36l-.88-.88c-9.76-9.76-9.76-25.59,0-35.36h0c9.76-9.76,9.76-25.59,0-35.36l-.88-.88c-9.76-9.76-25.59-9.76-35.36,0l-35.36,35.36c-9.76,9.76-25.59,9.76-35.36,0l-.88-.88c-9.76-9.76-25.59-9.76-35.36,0l-16.66,16.66c-10.01,10.01-26.23,10.01-36.23,0h0c-10.01-10.01-10.01-26.23,0-36.23l78.8-78.8c9.76-9.76,9.76-25.59,0-35.36l-.88-.88c-9.76-9.76-25.59-9.76-35.36,0l-56.15,56.15c-10.01,10.01-26.23,10.01-36.23,0h0c-10.01-10.01-10.01-26.23,0-36.23l140.26-140.26c9.76-9.76,9.76-25.59,0-35.36l-.88-.88c-9.76-9.76-25.59-9.76-35.36,0l-361.62,361.62c-10.01,10.01-10.01,26.23,0,36.23h0c10.01,10.01,10.01,26.23,0,36.23Z"/><circle class="cls-7" cx="186.51" cy="1059.83" r="25.62"/><path class="cls-9" d="M511.5,1684.81l-.43-.43c-9.89-9.89-9.88-25.92,0-35.8l4.25-4.25c9.89-9.89,9.89-25.92,0-35.8l-.43-.43c-9.89-9.89-9.88-25.92,0-35.8l38.33-38.33c10.01-10.01,10.01-26.23,0-36.23h0c-10.01-10.01-26.23-10.01-36.23,0l-56.65,56.65c-9.89,9.89-25.91,9.89-35.8,0l-.43-.43c-9.89-9.89-9.89-25.92,0-35.8l124.66-124.66c10.01-10.01,10.01-26.23,0-36.23h0c-10.01-10.01-26.23-10.01-36.23,0l-124.66,124.66c-9.89,9.89-25.91,9.89-35.8,0l-.43-.43c-9.89-9.89-9.89-25.92,0-35.8l285.34-285.34c10.01-10.01,26.23-10.01,36.23,0h0c10.01,10.01,26.23,10.01,36.23,0l124.45-124.45c10.01-10.01,26.23-10.01,36.23,0h0c10.01,10.01,10.01,26.23,0,36.23l-124.45,124.45c-10.01,10.01-10.01,26.23,0,36.23h0c10.01,10.01,26.23,10.01,36.23,0l56.43-56.43c10.01-10.01,26.23-10.01,36.23,0h0c10.01,10.01,10.01,26.23,0,36.23l-38.11,38.11c-10.01,10.01-10.01,26.23,0,36.23h0c10.01,10.01,10.01,26.23,0,36.23l-3.82,3.82c-10.01,10.01-10.01,26.23,0,36.23h0c10.01,10.01,10.01,26.23,0,36.23l-285.34,285.34c-9.89,9.89-25.91,9.89-35.8,0Z"/><circle class="cls-2" cx="694.87" cy="1121.61" r="25.62"/></g></g></svg>